<?xml version="1.0" encoding="UTF-8" standalone="no"?>
<svg width="45px" height="137px" viewBox="0 0 45 137" version="1.1" xmlns="http://www.w3.org/2000/svg" xmlns:xlink="http://www.w3.org/1999/xlink">
    <!-- Generator: sketchtool 40.3 (33839) - http://www.bohemiancoding.com/sketch -->
    <title>026F9B7F-176A-4ABA-A100-0172A2D814DA</title>
    <desc>Created with sketchtool.</desc>
    <defs>
        <path d="M-8.44943315e-09,102.869803 C-8.44943315e-09,101.217155 0.451138384,98.6225779 1.11376312,97.0959551 C1.11376312,97.0959551 2.64705882,91.0387103 9.70588234,87.5032264 C19.6055792,82.5448621 21.1764706,83.083871 30,78.6645161 C38.8235294,74.2451613 42.3083101,66.286941 42.3083101,66.286941 C42.8202692,65.3125117 43.2352941,65.4187242 43.2352941,66.5282207 L43.2352941,71.3556503 C43.2352941,72.4633347 42.9311583,74.2043078 42.4739715,75.202164 C42.4739715,75.202164 41.4037171,80.0670364 32.6470588,84.8516129 C22.9411765,90.1548387 16.7647059,90.1548387 8.8235294,96.3419355 C1.74219795,101.859113 1.08035777,105.919952 1.08035777,105.919952 C0.483692644,107.464238 -8.44943315e-09,107.373719 -8.44943315e-09,105.723745 L-8.44943315e-09,102.869803 Z" id="path-1"></path>
        <mask id="mask-2" maskContentUnits="userSpaceOnUse" maskUnits="objectBoundingBox" x="0" y="0" width="43.2352941" height="41.4014261" fill="white">
            <use xlink:href="#path-1"></use>
        </mask>
        <path d="M0,66.5455731 C0,64.8929252 0.451138392,62.2983478 1.11376313,60.771725 C1.11376313,60.771725 2.64705882,54.7144802 9.70588235,51.1789963 C19.6055792,46.220632 21.1764706,46.7596409 30,42.340286 C38.8235294,37.9209312 42.3083101,29.9627108 42.3083101,29.9627108 C42.8202692,28.9882816 43.2352941,29.094494 43.2352941,30.2039906 L43.2352941,35.0314202 C43.2352941,36.1391046 42.9311583,37.8800777 42.4739715,38.8779339 C42.4739715,38.8779339 41.4037171,43.7428063 32.6470588,48.5273828 C22.9411765,53.8306086 16.7647059,53.8306086 8.82352941,60.0177054 C1.74219795,65.5348832 1.08035778,69.5957219 1.08035778,69.5957219 C0.483692652,71.1400078 0,71.0494892 0,69.399515 L0,66.5455731 Z" id="path-3"></path>
        <mask id="mask-4" maskContentUnits="userSpaceOnUse" maskUnits="objectBoundingBox" x="0" y="0" width="43.2352941" height="41.4014261" fill="white">
            <use xlink:href="#path-3"></use>
        </mask>
        <path d="M0,30.3068635 C0,28.6542155 0.451138392,26.0596381 1.11376313,24.5330153 C1.11376313,24.5330153 2.64705882,18.4757705 9.70588235,14.9402866 C19.6055792,9.98192234 21.1764706,10.5209312 30,6.10157635 C33.3431477,4.42712666 37.1303453,0.795224517 37.1303453,0.795224517 C37.5373495,0.419774385 38.3249644,0.115411897 38.8769718,0.115411873 L41.2364481,0.11541177 C42.3403803,0.115411722 42.9602706,0.961462656 42.5335967,1.99649863 C42.5335967,1.99649863 41.4037171,7.50409667 32.6470588,12.2886731 C22.9411765,17.5918989 16.7647059,17.5918989 8.82352941,23.7789957 C1.74219795,29.2961736 1.08035778,33.3570122 1.08035778,33.3570122 C0.483692652,34.9012982 0,34.8107795 0,33.1608054 L0,30.3068635 Z" id="path-5"></path>
        <mask id="mask-6" maskContentUnits="userSpaceOnUse" maskUnits="objectBoundingBox" x="0" y="0" width="42.6692654" height="34.3437566" fill="white">
            <use xlink:href="#path-5"></use>
        </mask>
        <path d="M2.10904843,136.030609 C0.450630374,136.030609 -0.442644701,134.775767 0.219980035,133.249144 C0.219980035,133.249144 1.75327573,127.1919 8.81209926,123.656416 C18.7117961,118.698051 20.2826875,119.23706 29.1062169,114.817705 C37.9297463,110.398351 41.414527,102.44013 41.414527,102.44013 C41.9264861,101.465701 42.341511,101.571913 42.341511,102.68141 L42.341511,107.50884 C42.341511,108.616524 42.0373753,110.357497 41.5801884,111.355353 C41.5801884,111.355353 40.509934,116.220226 31.7532757,121.004802 C22.0473934,126.308028 15.8709228,126.308028 7.92974632,132.495125 C6.29999176,133.764892 5.06130019,135.275646 5.06130019,135.275646 C4.69625895,135.692601 3.94896106,136.030609 3.40455152,136.030609 L2.10904843,136.030609 Z" id="path-7"></path>
        <mask id="mask-8" maskContentUnits="userSpaceOnUse" maskUnits="objectBoundingBox" x="0" y="0" width="42.341511" height="34.2567379" fill="white">
            <use xlink:href="#path-7"></use>
        </mask>
        <path d="M-8.44943315e-09,102.869803 C-8.44943315e-09,101.217155 0.451138384,98.6225779 1.11376312,97.0959551 C1.11376312,97.0959551 2.64705882,91.0387103 9.70588234,87.5032264 C19.6055792,82.5448621 21.1764706,83.083871 30,78.6645161 C38.8235294,74.2451613 42.3083101,66.286941 42.3083101,66.286941 C42.8202692,65.3125117 43.2352941,65.4187242 43.2352941,66.5282207 L43.2352941,71.3556503 C43.2352941,72.4633347 42.9311583,74.2043078 42.4739715,75.202164 C42.4739715,75.202164 41.4037171,80.0670364 32.6470588,84.8516129 C22.9411765,90.1548387 16.7647059,90.1548387 8.8235294,96.3419355 C1.74219795,101.859113 1.08035777,105.919952 1.08035777,105.919952 C0.483692644,107.464238 -8.44943315e-09,107.373719 -8.44943315e-09,105.723745 L-8.44943315e-09,102.869803 Z" id="path-9"></path>
        <mask id="mask-10" maskContentUnits="userSpaceOnUse" maskUnits="objectBoundingBox" x="0" y="0" width="43.2352941" height="41.4014261" fill="white">
            <use xlink:href="#path-9"></use>
        </mask>
        <path d="M-2.13162821e-14,66.5455731 C-2.13162821e-14,64.8929252 0.451138392,62.2983478 1.11376313,60.771725 C1.11376313,60.771725 2.64705882,54.7144802 9.70588235,51.1789963 C19.6055792,46.220632 21.1764706,46.7596409 30,42.340286 C38.8235294,37.9209312 42.3083101,29.9627108 42.3083101,29.9627108 C42.8202692,28.9882816 43.2352941,29.094494 43.2352941,30.2039906 L43.2352941,35.0314202 C43.2352941,36.1391046 42.9311583,37.8800777 42.4739715,38.8779339 C42.4739715,38.8779339 41.4037171,43.7428063 32.6470588,48.5273828 C22.9411765,53.8306086 16.7647059,53.8306086 8.82352941,60.0177054 C1.74219795,65.5348832 1.08035778,69.5957219 1.08035778,69.5957219 C0.483692652,71.1400078 -2.13162821e-14,71.0494892 -2.13162821e-14,69.399515 L-2.13162821e-14,66.5455731 Z" id="path-11"></path>
        <mask id="mask-12" maskContentUnits="userSpaceOnUse" maskUnits="objectBoundingBox" x="0" y="0" width="43.2352941" height="41.4014261" fill="white">
            <use xlink:href="#path-11"></use>
        </mask>
        <path d="M0,30.3068635 C0,28.6542155 0.451138392,26.0596381 1.11376313,24.5330153 C1.11376313,24.5330153 2.64705882,18.4757705 9.70588235,14.9402866 C19.6055792,9.98192234 21.1764706,10.5209312 30,6.10157635 C33.2687314,4.46439881 37.0099396,0.919435501 37.0099396,0.919435501 C37.4116731,0.552945453 38.1872629,0.300241944 38.73298,0.354089944 L41.2504074,0.602494156 C42.3466301,0.710662651 42.9311583,1.64136802 42.4739715,2.63922424 C42.4739715,2.63922424 41.4037171,7.50409667 32.6470588,12.2886731 C22.9411765,17.5918989 16.7647059,17.5918989 8.82352941,23.7789957 C1.74219795,29.2961736 1.08035778,33.3570122 1.08035778,33.3570122 C0.483692652,34.9012982 0,34.8107795 0,33.1608054 L0,30.3068635 Z" id="path-13"></path>
        <mask id="mask-14" maskContentUnits="userSpaceOnUse" maskUnits="objectBoundingBox" x="0" y="0" width="42.6305887" height="34.1123088" fill="white">
            <use xlink:href="#path-13"></use>
        </mask>
        <path d="M1.82219761,136.91448 C0.168890896,136.91448 -0.491728938,135.756033 0.3958408,134.363458 C0.3958408,134.363458 4.12273865,127.1919 11.1815622,123.656416 C21.0812591,118.698051 22.6521504,119.23706 31.4756798,114.817705 C40.2992092,110.398351 43.7839899,102.44013 43.7839899,102.44013 C44.295949,101.465701 44.7109739,101.571913 44.7109739,102.68141 L44.7109739,107.50884 C44.7109739,108.616524 44.4068382,110.357497 43.9496513,111.355353 C43.9496513,111.355353 42.8793969,116.220226 34.1227387,121.004802 C24.4168563,126.308028 18.2403857,126.308028 10.2992092,132.495125 C8.46439671,133.924656 6.54112024,136.177414 6.54112024,136.177414 C6.18010504,136.584484 5.44588338,136.91448 4.89105878,136.91448 L1.82219761,136.91448 Z" id="path-15"></path>
        <mask id="mask-16" maskContentUnits="userSpaceOnUse" maskUnits="objectBoundingBox" x="0" y="0" width="44.7109739" height="35.140609" fill="white">
            <use xlink:href="#path-15"></use>
        </mask>
    </defs>
    <g id="Page-1" stroke="none" stroke-width="1" fill="none" fill-rule="evenodd">
        <g id="Homepage-|-Before-log-in" transform="translate(-766.000000, -1572.000000)">
            <g id="Healthcare" transform="translate(650.000000, 1554.000000)">
                <g id="Group-35" transform="translate(52.000000, 0.000000)">
                    <g id="healthcare-icon" transform="translate(64.000000, 18.000000)">
                        <g id="Group-26">
                            <g id="Group-23" stroke="#414953">
                                <use id="Rectangle-225" mask="url(#mask-2)" stroke-width="2" fill="#414953" xlink:href="#path-1"></use>
                                <use id="Rectangle-225-Copy" mask="url(#mask-4)" stroke-width="4" transform="translate(21.617647, 49.997165) scale(-1, 1) translate(-21.617647, -49.997165) " xlink:href="#path-3"></use>
                                <use id="Rectangle-225-Copy-3" mask="url(#mask-6)" stroke-width="2" fill="#414953" xlink:href="#path-5"></use>
                                <use id="Rectangle-225-Copy-2" mask="url(#mask-8)" stroke-width="4" transform="translate(21.170756, 118.902240) scale(-1, 1) translate(-21.170756, -118.902240) " xlink:href="#path-7"></use>
                            </g>
                            <g id="Group-23-Copy" transform="translate(22.500000, 68.500000) scale(-1, -1) translate(-22.500000, -68.500000) " stroke="#FFFFFF">
                                <use id="Rectangle-225" mask="url(#mask-10)" stroke-width="2" fill="#FFFFFF" xlink:href="#path-9"></use>
                                <use id="Rectangle-225-Copy" mask="url(#mask-12)" stroke-width="4" transform="translate(21.617647, 49.997165) scale(-1, 1) translate(-21.617647, -49.997165) " xlink:href="#path-11"></use>
                                <use id="Rectangle-225-Copy-3" mask="url(#mask-14)" stroke-width="2" fill="#FFFFFF" xlink:href="#path-13"></use>
                                <use id="Rectangle-225-Copy-2" mask="url(#mask-16)" stroke-width="4" transform="translate(22.355487, 119.344176) scale(-1, 1) translate(-22.355487, -119.344176) " xlink:href="#path-15"></use>
                            </g>
                            <g id="Group-25" transform="translate(4.411765, 19.115582)" fill="#414953">
                                <rect id="Rectangle-229" x="15" y="0" width="15.8823529" height="2.6516129" rx="1.32580645"></rect>
                                <rect id="Rectangle-229-Copy-15" x="15" y="37.1225806" width="15.8823529" height="2.6516129" rx="1.32580645"></rect>
                                <rect id="Rectangle-229-Copy-20" x="15" y="73.3612903" width="15.8823529" height="2.6516129" rx="1.32580645"></rect>
                                <rect id="Rectangle-229-Copy-4" x="4.41176471" y="22.0967742" width="15.8823529" height="2.6516129" rx="1.32580645"></rect>
                                <rect id="Rectangle-229-Copy-16" x="4.41176471" y="59.2193548" width="15.8823529" height="2.6516129" rx="1.32580645"></rect>
                                <rect id="Rectangle-229-Copy-21" x="4.41176471" y="95.4580645" width="15.8823529" height="2.6516129" rx="1.32580645"></rect>
                                <rect id="Rectangle-229-Copy" x="7.94117647" y="5.30322581" width="27.3529412" height="2.6516129" rx="1.32580645"></rect>
                                <rect id="Rectangle-229-Copy-17" x="7.94117647" y="42.4258065" width="27.3529412" height="2.6516129" rx="1.32580645"></rect>
                                <rect id="Rectangle-229-Copy-22" x="7.94117647" y="78.6645161" width="27.3529412" height="2.6516129" rx="1.32580645"></rect>
                                <rect id="Rectangle-229-Copy-3" x="0" y="15.9096774" width="27.3529412" height="2.6516129" rx="1.32580645"></rect>
                                <rect id="Rectangle-229-Copy-18" x="0" y="53.0322581" width="27.3529412" height="2.6516129" rx="1.32580645"></rect>
                                <rect id="Rectangle-229-Copy-23" x="0" y="89.2709677" width="27.3529412" height="2.6516129" rx="1.32580645"></rect>
                                <rect id="Rectangle-229-Copy-2" x="0.882352941" y="10.6064516" width="35.2941176" height="2.6516129" rx="1.32580645"></rect>
                                <rect id="Rectangle-229-Copy-19" x="0.882352941" y="47.7290323" width="35.2941176" height="2.6516129" rx="1.32580645"></rect>
                                <rect id="Rectangle-229-Copy-24" x="0.882352941" y="83.9677419" width="35.2941176" height="2.6516129" rx="1.32580645"></rect>
                            </g>
                        </g>
                    </g>
                </g>
            </g>
        </g>
    </g>
</svg>