<?xml version="1.0" encoding="UTF-8" standalone="no"?>
<svg width="115px" height="108px" viewBox="0 0 115 108" version="1.1" xmlns="http://www.w3.org/2000/svg" xmlns:xlink="http://www.w3.org/1999/xlink">
    <!-- Generator: sketchtool 40.3 (33839) - http://www.bohemiancoding.com/sketch -->
    <title>1D5DB823-9CE3-4C35-868E-5B9DB4CA6DD5</title>
    <desc>Created with sketchtool.</desc>
    <defs>
        <path d="M6.43471832,5.4909723 C6.46738096,4.94367341 6.94428567,4.5 7.49237491,4.5 L89.2134777,4.5 C89.7649427,4.5 90.2386344,4.94640005 90.2711343,5.4909723 L95.7110431,96.6426822 C95.9741419,101.051195 92.6116922,104.625 88.1952909,104.625 L8.51056169,104.625 C4.09662759,104.625 0.731975867,101.046752 0.994809521,96.6426822 L6.43471832,5.4909723 Z" id="path-1"></path>
        <mask id="mask-2" maskContentUnits="userSpaceOnUse" maskUnits="objectBoundingBox" x="0" y="0" width="94.7450862" height="100.125" fill="white">
            <use xlink:href="#path-1"></use>
        </mask>
        <path d="M2.25490196,12.9375 L40.5882353,12.9375 L36.0119908,59.8806954 C35.9046188,60.9821194 34.9172811,61.875 33.8168879,61.875 L10.7594417,61.875 C9.65449185,61.875 8.64031455,60.9838229 8.49573908,59.895981 L2.25490196,12.9375 Z" id="path-3"></path>
        <mask id="mask-4" maskContentUnits="userSpaceOnUse" maskUnits="objectBoundingBox" x="0" y="0" width="38.3333333" height="48.9375" fill="white">
            <use xlink:href="#path-3"></use>
        </mask>
        <path d="M2.24835526,25.1725588 C2.16989706,24.6285258 2.55348984,24.1875 3.10002615,24.1875 L39.7428655,24.1875 C40.2916886,24.1875 40.6907351,24.6383449 40.636392,25.1725588 L38.4335389,46.8274412 C38.3781969,47.3714742 37.8941984,47.8125 37.3331775,47.8125 L6.51355042,47.8125 C5.9611796,47.8125 5.44837558,47.3616551 5.37133345,46.8274412 L2.24835526,25.1725588 Z" id="path-5"></path>
        <mask id="mask-6" maskContentUnits="userSpaceOnUse" maskUnits="objectBoundingBox" x="0" y="0" width="38.4031722" height="23.625" fill="white">
            <use xlink:href="#path-5"></use>
        </mask>
        <rect id="path-7" x="0" y="11.8125" width="42.8431373" height="3.375"></rect>
        <mask id="mask-8" maskContentUnits="userSpaceOnUse" maskUnits="objectBoundingBox" x="0" y="0" width="42.8431373" height="3.375" fill="white">
            <use xlink:href="#path-7"></use>
        </mask>
        <rect id="path-9" x="2.25490196" y="1.6875" width="38.3333333" height="9"></rect>
        <mask id="mask-10" maskContentUnits="userSpaceOnUse" maskUnits="objectBoundingBox" x="0" y="0" width="38.3333333" height="9" fill="white">
            <use xlink:href="#path-9"></use>
        </mask>
        <rect id="path-11" x="0" y="8.4375" width="42.8431373" height="4.5" rx="2.25"></rect>
        <mask id="mask-12" maskContentUnits="userSpaceOnUse" maskUnits="objectBoundingBox" x="0" y="0" width="42.8431373" height="4.5" fill="white">
            <use xlink:href="#path-11"></use>
        </mask>
    </defs>
    <g id="Page-1" stroke="none" stroke-width="1" fill="none" fill-rule="evenodd">
        <g id="Homepage-|-Before-log-in" transform="translate(-434.000000, -1585.000000)">
            <g id="F&amp;B" transform="translate(354.000000, 1546.000000)">
                <g id="Group-36" transform="translate(52.000000, 0.000000)">
                    <g id="retail-icon" transform="translate(28.000000, 39.000000)">
                        <g id="Group-18">
                            <g id="Group-16" transform="translate(18.427521, 0.000000)">
                                <use id="Rectangle-495" stroke="#414953" mask="url(#mask-2)" stroke-width="4" fill="#F5F5F6" xlink:href="#path-1"></use>
                                <ellipse id="Oval-203" fill="#414953" cx="61.8823529" cy="18" rx="3.38235294" ry="3.375"></ellipse>
                                <ellipse id="Oval-203-Copy-2" fill="#414953" cx="34.8235294" cy="18" rx="3.38235294" ry="3.375"></ellipse>
                                <path d="M60.3103812,18.1176962 C60.1940731,19.2047835 60.0465817,20.4174891 59.8653748,21.724036 C59.3480726,25.4539136 58.6655279,29.1821837 57.7994918,32.6512587 C55.4363721,42.1171922 52.1807294,47.7062378 48.3529412,47.7062378 C44.5251529,47.7062378 41.2695103,42.1171922 38.9063905,32.6512587 C38.0403545,29.1821837 37.3578098,25.4539136 36.8405075,21.724036 C36.6593006,20.4174891 36.5118092,19.2047835 36.3955011,18.1176962 C36.3260736,17.4687838 36.3589937,17.7672773 36.3589937,17.7672773 C36.3058083,17.2156711 35.8210591,16.8123666 35.26682,16.8674107 L34.5840985,16.935215 C34.034093,16.9898387 33.6299126,17.4805047 33.6836673,18.0290719 C33.6836673,18.0290719 33.6559726,17.7835529 33.7281631,18.4582896 C33.847885,19.5772842 33.9993648,20.8227841 34.1853156,22.1635354 C34.7170354,25.9973671 35.4191998,29.8328062 36.3155208,33.4231932 C38.9877067,44.1271511 42.7814921,50.6400402 48.3529412,50.6400402 C53.9243903,50.6400402 57.7181756,44.1271511 60.3903616,33.4231932 C61.2866825,29.8328062 61.9888469,25.9973671 62.5205667,22.1635354 C62.7065175,20.8227841 62.8579974,19.5772842 62.9777193,18.4582896 C63.0499097,17.7835529 63.022215,18.0290719 63.022215,18.0290719 C63.0749261,17.4795751 62.676023,16.9902591 62.1217839,16.935215 L61.4390623,16.8674107 C60.8890568,16.8127871 60.4033026,17.2073401 60.3467071,17.7727859 C60.3467071,17.7727859 60.3798087,17.4687838 60.3103812,18.1176962 Z" id="Shape" fill="#939DA8"></path>
                                <rect id="Rectangle-498" fill="#414953" x="8.89215686" y="0" width="77.7941176" height="3.375"></rect>
                            </g>
                            <g id="Group-3" transform="translate(0.260855, 46.125000)">
                                <use id="Rectangle-481" stroke="#FFFFFF" mask="url(#mask-4)" stroke-width="2" fill="#939DA8" xlink:href="#path-3"></use>
                                <use id="Rectangle-482" stroke="#FFFFFF" mask="url(#mask-6)" stroke-width="2" fill="#414953" xlink:href="#path-5"></use>
                                <use id="Rectangle-483" stroke="#FFFFFF" mask="url(#mask-8)" stroke-width="2" fill="#414953" xlink:href="#path-7"></use>
                                <rect id="Rectangle-493" fill="#414953" x="11.2745098" y="0" width="7.89215686" height="3.375" rx="1"></rect>
                                <use id="Rectangle-483-Copy" stroke="#FFFFFF" mask="url(#mask-10)" stroke-width="2" fill="#414953" xlink:href="#path-9"></use>
                                <use id="Rectangle-485" stroke="#FFFFFF" mask="url(#mask-12)" stroke-width="2" fill="#414953" xlink:href="#path-11"></use>
                            </g>
                            <g id="Group-4-Copy-2" transform="translate(70.542538, 90.775747) scale(-1, 1) rotate(-357.000000) translate(-70.542538, -90.775747) translate(45.542538, 76.775747)" fill="#939DA8">
                                <path d="M22.0538738,1.42015442 C24.6167657,0.853246604 27.0320054,0.711695229 29.0645191,1.03432534 C29.0958781,1.12522513 29.1288858,1.22188409 29.1633974,1.3240864 C29.4625689,2.21005028 29.7619233,3.1852064 30.0412737,4.21928885 C30.6087901,6.32008642 31.0190685,8.38557763 31.2048556,10.311237 C31.3784931,12.1109674 31.3474791,13.7182479 31.0845296,15.0809665 C30.6512142,17.3265953 29.6929139,19.5259697 28.3656674,21.6140459 C28.0052278,22.1811036 27.630487,22.7194569 27.2494322,23.2259845 C26.3964756,23.2458796 25.5125572,23.2320308 24.6353235,23.1957541 C24.678349,22.9731223 24.7309447,22.7009655 24.7992549,22.3474936 C25.3246929,19.628369 25.8598222,16.8574505 26.3728455,14.1987409 C26.495094,13.5651959 26.5485412,12.9111994 26.5370127,12.2390601 C26.4938317,9.72150578 25.5608581,7.06049082 24.0379324,4.40575326 C23.4961792,3.46137842 22.9162266,2.58429948 22.3358625,1.79591784 C22.2384435,1.66358129 22.144275,1.53822722 22.0538738,1.42015442 Z M20.8040861,1.72726646 C19.3946826,2.10771572 17.9531338,2.61090254 16.5166958,3.23067366 C16.1279638,4.8605387 15.8446632,6.45484197 15.6991241,7.96333595 C15.5254866,9.76306631 15.5565006,11.3703468 15.8194501,12.7330654 C16.2527655,14.9786942 17.2110659,17.1780686 18.5383124,19.2661448 C19.1927938,20.2958007 19.8944275,21.2308161 20.5953956,22.0525031 C20.8400136,22.3392485 21.0666621,22.5909467 21.2693453,22.8053125 C21.3346968,22.8744308 21.3893727,22.9311137 21.4323995,22.9749938 C22.0774248,23.0352287 22.7574954,23.0901463 23.4529438,23.1338349 C23.5013125,22.8835583 23.5622848,22.5680565 23.6480015,22.1245149 C24.173421,19.4054863 24.708531,16.6346677 25.2215323,13.9760719 C25.3279406,13.4246174 25.3747507,12.8518357 25.3645861,12.2592159 C25.3253798,9.97339777 24.4541444,7.48847163 23.0211018,4.9904167 C22.5029123,4.08711781 21.9472119,3.24671626 21.391923,2.49239734 C21.1513285,2.1655674 20.9505493,1.90763552 20.8040861,1.72726646 Z M30.4015883,1.33056267 C32.637953,1.98281568 34.23219,3.33068928 34.7651829,5.44340526 C36.2374635,11.2793382 36.237464,20.0332376 32.5567606,22.2217124 C31.6807499,22.7425714 30.3188067,23.0240488 28.7518568,23.1505869 C28.9561495,22.8570697 29.1575597,22.5548446 29.3549444,22.2443111 C30.7557864,20.0404516 31.7717607,17.7087111 32.2358428,15.3036356 C32.5225494,13.8177977 32.5556619,12.1017624 32.372023,10.1983694 C32.1792206,8.19999691 31.7566018,6.07237981 31.1732058,3.91279995 C30.9268196,3.00074262 30.66531,2.13370425 30.4015883,1.33056267 Z M15.1740726,3.84499759 C15.0790982,3.89096695 14.9841976,3.93744236 14.8893819,3.98442203 C6.05569255,8.36137172 15.084437,21.3818776 15.084437,21.3818776 C15.3777798,21.8469054 16.0692912,22.2892772 16.6167075,22.3726226 C16.6167075,22.3726226 17.8646376,22.5800348 19.6837292,22.7914321 C18.9555467,21.9357224 18.2284448,20.9652836 17.5490353,19.8964101 C16.1481933,17.6925505 15.1322191,15.3608101 14.6681369,12.9557345 C14.3814304,11.4698967 14.3483178,9.75386132 14.5319567,7.8504683 C14.6564177,6.56044669 14.8766469,5.21656666 15.1740726,3.84499759 Z" id="Path-564"></path>
                                <path d="M10.5834418,16.3857795 C9.84730098,13.467813 9.28219958,10.0711445 9.28219958,10.0711445 C9.18773697,9.52975015 8.76035886,9.36988987 8.3373393,9.71771732 C8.3373393,9.71771732 2.48589288,14.1973046 1.01361132,18.5742543 C-0.458670237,22.951204 1.01361121,30.9756118 4.58341088,26.5986622 C8.15321055,22.2217126 12.5522484,21.6944342 12.5522484,21.6944342 C13.0911434,21.5827548 13.2211551,21.1613529 12.8690798,20.7441548 C12.8690798,20.7441548 11.3195825,19.3037459 10.5834418,16.3857795 Z" id="Path-565"></path>
                                <path d="M37.4840408,14.0639557 C37.3873642,11.0561184 36.9943258,7.63526797 36.9943258,7.63526797 C36.9359006,7.08880892 37.3026593,6.81733998 37.8051661,7.03509319 C37.8051661,7.03509319 44.664679,9.72827168 47.2863777,13.52985 C49.9080764,17.3314283 50.7046552,25.4507998 46.0666927,22.227376 C41.4287302,19.0039522 37.054766,19.7096387 37.054766,19.7096387 C36.5059638,19.7508252 36.2648345,19.3815838 36.4882756,18.8835021 C36.4882756,18.8835021 37.5807175,17.071793 37.4840408,14.0639557 Z" id="Path-565-Copy"></path>
                            </g>
                            <rect id="Rectangle-531" fill="#414953" x="40.5882353" y="100.125" width="60.8823529" height="6.75"></rect>
                        </g>
                    </g>
                </g>
            </g>
        </g>
    </g>
</svg>